:SAMPLES-PER-SECOND 30
:FRAME-RANGE 1-2009
:FULLY-SPECIFIED
:DEGREES
628
root  -45.0353 38.3187 -132.392 178.514 48.3509 -179.653
RightUpLeg  -14.866 -5.54782 5.62681
RightLeg  19.0393 -39.2892 -6.02101
RightFoot  -6.55604 0.310726 -8.47209
RightToes  4.71047e-010 1.2921e-014 -6.02303e-014
Spine  6.0688 0.164684 9.93574
Spine1  0.19542 0.376447 2.312
HEad  16.7009 -18.7835 -4.20804
LeftShoulder1  1.43356 -0.77427 -27.3931
LeftArm  13.8006 0.846876 -28.3399
LeftForeArm  -0.3646 -25.4411 -5.4705
LeftHand  0.29729 -1.35823 -5.00926
RightShoulder  7.98877 11.6587 46.0996
RightArm  15.9355 8.63946 8.27717
RightForeArm  33.6674 21.3355 4.07877
RightHand  -0.845676 0.0949987 -17.892
LeftUpLeg  -4.83173 29.4395 0.411649
LeftLeg  43.712 4.75187 5.24182
LeftFoot  -5.35336 1.135 -20.8856
LeftToes  2.15783e-011 -7.56106e-012 -8.20802e-012
629
root  -44.8791 38.2089 -133.164 -179.987 50.1346 -177.732
RightUpLeg  -14.6496 -5.54116 6.30134
RightLeg  20.8046 -37.4815 -6.515
RightFoot  -7.69819 0.177057 -7.18592
RightToes  4.71047e-010 1.2921e-014 -6.02303e-014
Spine  6.98133 0.12785 13.0956
Spine1  -0.649053 0.833192 1.61762
HEad  16.2835 -19.0066 -3.27148
LeftShoulder1  1.45535 -0.838163 -27.4031
LeftArm  15.1838 1.51606 -29.6154
LeftForeArm  1.08746 -26.2711 -5.58491
LeftHand  0.429827 -1.80337 -6.79782
RightShoulder  8.53398 12.2729 47.355
RightArm  15.756 9.34825 9.63405
RightForeArm  26.7487 21.7286 4.15515
RightHand  -0.680477 -0.815145 -17.2082
LeftUpLeg  -10.3014 27.728 1.89814
LeftLeg  52.8871 2.20948 3.59709
LeftFoot  5.64075 2.51114 -16.9464
LeftToes  2.15783e-011 -7.56106e-012 -8.20802e-012
630
root  -44.7241 38.0263 -133.938 -178.3 52.8488 -175.683
RightUpLeg  -15.1112 -5.42617 7.32761
RightLeg  23.7861 -34.5809 -8.02576
RightFoot  -8.97108 0.0549357 -5.57603
RightToes  4.71047e-010 1.2921e-014 -6.02303e-014
Spine  7.65924 0.23878 15.6286
Spine1  -0.977438 1.32283 1.57641
HEad  15.7779 -18.2632 -2.73088
LeftShoulder1  1.45466 -0.768844 -27.945
LeftArm  16.5173 2.48675 -30.2759
LeftForeArm  1.98041 -26.9341 -5.69138
LeftHand  0.463294 -1.69509 -7.46088
RightShoulder  9.14647 13.2078 47.9159
RightArm  19.4621 10.0109 11.7645
RightForeArm  17.0445 22.936 4.20831
RightHand  -0.538966 -1.6236 -16.4779
LeftUpLeg  -14.4173 26.5937 3.69793
LeftLeg  59.6337 -0.389395 -0.17687
LeftFoot  8.48195 2.28089 -13.3023
LeftToes  2.15783e-011 -7.56106e-012 -8.20802e-012
631
root  -44.5371 38.0472 -134.772 -178.121 55.9238 -175.459
RightUpLeg  -14.5644 -5.46875 7.05303
RightLeg  24.6185 -31.3247 -8.25479
RightFoot  -9.71797 -0.0035564 -4.37907
RightToes  4.71047e-010 1.2921e-014 -6.02303e-014
Spine  8.30285 0.26814 16.2948
Spine1  -1.51854 1.5733 1.54837
HEad  15.5925 -17.1566 -2.28089
LeftShoulder1  1.4588 -0.734462 -28.328
LeftArm  17.1512 4.40735 -31.0428
LeftForeArm  2.60157 -27.295 -5.74272
LeftHand  0.435878 -1.72391 -6.98042
RightShoulder  10.0186 14.4728 48.7887
RightArm  23.2168 10.3637 13.7354
RightForeArm  15.6353 23.7744 4.26798
RightHand  -0.537187 -1.17804 -14.7301
LeftUpLeg  -17.4155 25.5514 4.61609
LeftLeg  63.6878 -0.988473 -1.56686
LeftFoot  5.14361 1.95299 -13.6465
LeftToes  2.15783e-011 -7.56106e-012 -8.20802e-012
632
root  -44.3245 38.2188 -135.632 -178.597 59.1924 -176.223
RightUpLeg  -13.4994 -5.41502 6.06444
RightLeg  23.8352 -27.8133 -7.54266
RightFoot  -9.93311 -0.0250583 -3.42221
RightToes  4.71047e-010 1.2921e-014 -6.02303e-014
Spine  8.38551 0.19748 16.5158
Spine1  -1.75992 1.6799 0.759404
HEad  15.1075 -15.4799 -2.62989
LeftShoulder1  1.44723 -0.721177 -28.1582
LeftArm  17.2967 6.76346 -32.2044
LeftForeArm  2.79636 -27.2111 -5.71277
LeftHand  0.388606 -1.7616 -6.17217
RightShoulder  10.9238 15.6207 49.993
RightArm  27.8446 10.4018 15.6652
RightForeArm  15.9234 24.5968 4.42738
RightHand  -0.478267 -1.88582 -15.6772
LeftUpLeg  -19.4341 23.863 4.97236
LeftLeg  64.1301 -0.958354 -1.53522
LeftFoot  3.49912 1.67239 -12.9609
LeftToes  2.15783e-011 -7.56106e-012 -8.20802e-012
633
root  -44.0911 38.4774 -136.491 -179.675 62.8212 -177.737
RightUpLeg  -12.1165 -5.45928 4.64889
RightLeg  21.9215 -24.1314 -6.17502
RightFoot  -9.60085 -0.0257193 -2.58063
RightToes  4.71047e-010 1.2921e-014 -6.02303e-014
Spine  8.47631 0.487243 16.1546
Spine1  -1.8385 1.92302 0.663583
HEad  14.7036 -13.5636 -2.87051
LeftShoulder1  1.46062 -0.594969 -29.5673
LeftArm  18.1013 8.24103 -32.3337
LeftForeArm  2.91436 -27.2034 -5.70473
LeftHand  0.385273 -1.81508 -6.06737
RightShoulder  11.1411 16.0953 49.7484
RightArm  31.8026 9.80513 17.9136
RightForeArm  19.1007 26.506 4.67395
RightHand  -0.502847 -0.910848 -12.9897
LeftUpLeg  -20.5566 21.2191 5.03096
LeftLeg  61.861 -0.182908 0.209029
LeftFoot  0.977216 1.30877 -12.1481
LeftToes  2.15783e-011 -7.56106e-012 -8.20802e-012
634
root  -43.8568 38.6013 -137.333 179.98 66.7747 -178.541
RightUpLeg  -11.3648 -5.69731 3.5467
RightLeg  20.7483 -20.0706 -4.7977
RightFoot  -9.73201 -0.0396636 -1.86397
RightToes  4.71047e-010 1.2921e-014 -6.02303e-014
Spine  8.83164 0.724258 16.3446
Spine1  -2.60853 2.26194 0.0461807
HEad  14.1436 -11.4422 -3.91603
LeftShoulder1  1.48216 -0.61477 -29.9248
LeftArm  18.4908 10.3759 -32.8183
LeftForeArm  3.92763 -27.6032 -5.74429
LeftHand  0.396502 -1.93082 -6.13854
RightShoulder  11.2941 16.1871 50.1938
RightArm  34.069 8.14127 19.7581
RightForeArm  21.3824 29.0421 5.12318
RightHand  -0.409729 -1.0042 -10.7898
LeftUpLeg  -21.1746 18.2997 5.87751
LeftLeg  58.466 0.698001 1.75264
LeftFoot  -1.57342 0.909056 -10.5074
LeftToes  2.15783e-011 -7.56106e-012 -8.20802e-012
635
root  -43.5962 38.7655 -138.117 179.534 70.9952 -179.511
RightUpLeg  -10.5264 -6.38017 2.11481
RightLeg  19.0678 -15.4253 -2.43782
RightFoot  -9.51055 -0.0347979 -1.84942
RightToes  4.71047e-010 1.2921e-014 -6.02303e-014
Spine  8.93444 1.08143 16.1815
Spine1  -2.8548 2.62947 -0.521448
HEad  13.4651 -9.17661 -4.02356
LeftShoulder1  1.43267 -0.424621 -30.4106
LeftArm  19.2313 12.2023 -32.8249
LeftForeArm  4.41553 -29.0774 -6.06936
LeftHand  0.407328 -1.76502 -6.47288
RightShoulder  11.2471 15.9009 50.7209
RightArm  36.3682 6.31009 20.8355
RightForeArm  22.8906 31.6326 5.65398
RightHand  -0.331408 -0.773312 -8.29589
LeftUpLeg  -20.7934 14.9354 6.92621
LeftLeg  52.79 1.88147 3.11314
LeftFoot  -2.75632 0.663449 -8.60854
LeftToes  2.15783e-011 -7.56106e-012 -8.20802e-012
